<svg xmlns="http://www.w3.org/2000/svg">
  <symbol id="icon-dashboard" viewBox="0 0 24 24">
    <path d="M3 5.5A2.5 2.5 0 0 1 5.5 3h3A2.5 2.5 0 0 1 11 5.5v3A2.5 2.5 0 0 1 8.5 11h-3A2.5 2.5 0 0 1 3 8.5v-3Z"/>
    <path d="M13 5.5A2.5 2.5 0 0 1 15.5 3h3A2.5 2.5 0 0 1 21 5.5v3a2.5 2.5 0 0 1-2.5 2.5h-3A2.5 2.5 0 0 1 13 8.5v-3Z"/>
    <path d="M3 15.5A2.5 2.5 0 0 1 5.5 13h3a2.5 2.5 0 0 1 2.5 2.5v3A2.5 2.5 0 0 1 8.5 21h-3A2.5 2.5 0 0 1 3 18.5v-3Z"/>
    <path d="M13 15.5a2.5 2.5 0 0 1 2.5-2.5h3a2.5 2.5 0 0 1 2.5 2.5v3a2.5 2.5 0 0 1-2.5 2.5h-3a2.5 2.5 0 0 1-2.5-2.5v-3Z"/>
  </symbol>
  <symbol id="icon-queue-play-next" viewBox="0 0 24 24">
    <path d="M4 6h9"/>
    <path d="M4 12h7"/>
    <path d="M4 18h7"/>
    <path d="M15 10l5 3-5 3v-6Z"/>
  </symbol>
  <symbol id="icon-voice-chat" viewBox="0 0 24 24">
    <path d="M5 5h14a2 2 0 0 1 2 2v8a2 2 0 0 1-2 2H9l-4 4v-4a2 2 0 0 1-2-2V7a2 2 0 0 1 2-2Z"/>
    <path d="M9 9v4"/>
    <path d="M12 8v6"/>
    <path d="M15 10v2"/>
  </symbol>
  <symbol id="icon-bookmarks" viewBox="0 0 24 24">
    <path d="M8 4h10a1 1 0 0 1 1 1v16l-6-4-6 4V5a1 1 0 0 1 1-1Z"/>
    <path d="M5 7v14"/>
  </symbol>
  <symbol id="icon-notifications-active" viewBox="0 0 24 24">
    <path d="M18 8a6 6 0 1 0-12 0c0 7-3 7-3 9h18c0-2-3-2-3-9Z"/>
    <path d="M10 21h4"/>
    <path d="M4 4 2.5 5.5"/>
    <path d="M20 4l1.5 1.5"/>
  </symbol>
  <symbol id="icon-notifications" viewBox="0 0 24 24">
    <path d="M18 8a6 6 0 1 0-12 0c0 7-3 7-3 9h18c0-2-3-2-3-9Z"/>
    <path d="M10 21h4"/>
  </symbol>
  <symbol id="icon-settings" viewBox="0 0 24 24">
    <path d="M12 15.5A3.5 3.5 0 1 0 12 8a3.5 3.5 0 0 0 0 7.5Z"/>
    <path d="M19.4 15a1.7 1.7 0 0 0 .34 1.88l.06.06a2 2 0 1 1-2.83 2.83l-.06-.06A1.7 1.7 0 0 0 15 19.4a1.7 1.7 0 0 0-1 .6 1.7 1.7 0 0 0-.4 1.1V21a2 2 0 0 1-4 0v-.1A1.7 1.7 0 0 0 8.6 19.4a1.7 1.7 0 0 0-1.88.34l-.06.06a2 2 0 1 1-2.83-2.83l.06-.06A1.7 1.7 0 0 0 4.6 15a1.7 1.7 0 0 0-.6-1 1.7 1.7 0 0 0-1.1-.4H3a2 2 0 0 1 0-4h.1A1.7 1.7 0 0 0 4.6 8.6a1.7 1.7 0 0 0-.34-1.88l-.06-.06a2 2 0 1 1 2.83-2.83l.06.06A1.7 1.7 0 0 0 9 4.6a1.7 1.7 0 0 0 1-.6 1.7 1.7 0 0 0 .4-1.1V3a2 2 0 0 1 4 0v.1A1.7 1.7 0 0 0 15.4 4.6a1.7 1.7 0 0 0 1.88-.34l.06-.06a2 2 0 1 1 2.83 2.83l-.06.06A1.7 1.7 0 0 0 19.4 9c.2.38.52.7.9.9.34.18.71.27 1.1.27h.1a2 2 0 0 1 0 4h-.1a1.7 1.7 0 0 0-2 1Z"/>
  </symbol>
  <symbol id="icon-help" viewBox="0 0 24 24">
    <path d="M9.1 9a3 3 0 1 1 5.3 1.9c-.9.8-1.4 1.2-1.8 1.8-.3.4-.4.8-.4 1.3"/>
    <path d="M12 17h.01"/>
    <path d="M12 22a10 10 0 1 0 0-20 10 10 0 0 0 0 20Z"/>
  </symbol>
  <symbol id="icon-logout" viewBox="0 0 24 24">
    <path d="M9 21H5a2 2 0 0 1-2-2V5a2 2 0 0 1 2-2h4"/>
    <path d="M16 17l5-5-5-5"/>
    <path d="M21 12H9"/>
  </symbol>
  <symbol id="icon-insights" viewBox="0 0 24 24">
    <path d="M4 19V5"/>
    <path d="M4 19h16"/>
    <path d="M8 16v-5"/>
    <path d="M12 16V8"/>
    <path d="M16 16v-3"/>
    <path d="M20 6l-4 4-3-3-5 5"/>
  </symbol>
  <symbol id="icon-arrow-back" viewBox="0 0 24 24">
    <path d="M19 12H5"/>
    <path d="m12 19-7-7 7-7"/>
  </symbol>
  <symbol id="icon-video-library" viewBox="0 0 24 24">
    <path d="M4 6h14a2 2 0 0 1 2 2v9a2 2 0 0 1-2 2H4a2 2 0 0 1-2-2V8a2 2 0 0 1 2-2Z"/>
    <path d="M8 3h10"/>
    <path d="m10 10 5 3-5 3v-6Z"/>
  </symbol>
  <symbol id="icon-auto-awesome" viewBox="0 0 24 24">
    <path d="m12 2 1.4 5.1L18 9l-4.6 1.9L12 16l-1.4-5.1L6 9l4.6-1.9L12 2Z"/>
    <path d="m5 14 .8 2.2L8 17l-2.2.8L5 20l-.8-2.2L2 17l2.2-.8L5 14Z"/>
    <path d="m19 14 .8 2.2L22 17l-2.2.8L19 20l-.8-2.2L16 17l2.2-.8L19 14Z"/>
  </symbol>
  <symbol id="icon-forum" viewBox="0 0 24 24">
    <path d="M4 5h12a2 2 0 0 1 2 2v7a2 2 0 0 1-2 2H9l-5 4v-4a2 2 0 0 1-2-2V7a2 2 0 0 1 2-2Z"/>
    <path d="M8 9h6"/>
    <path d="M8 12h4"/>
    <path d="M18 9h2a2 2 0 0 1 2 2v8l-3-3"/>
  </symbol>
  <symbol id="icon-description" viewBox="0 0 24 24">
    <path d="M6 2h8l4 4v16H6V2Z"/>
    <path d="M14 2v5h5"/>
    <path d="M9 12h6"/>
    <path d="M9 16h6"/>
  </symbol>
  <symbol id="icon-history" viewBox="0 0 24 24">
    <path d="M3 12a9 9 0 1 0 3-6.7"/>
    <path d="M3 4v5h5"/>
    <path d="M12 7v5l3 2"/>
  </symbol>
  <symbol id="icon-close" viewBox="0 0 24 24">
    <path d="M18 6 6 18"/>
    <path d="m6 6 12 12"/>
  </symbol>
  <symbol id="icon-expand-more" viewBox="0 0 24 24">
    <path d="m6 9 6 6 6-6"/>
  </symbol>
  <symbol id="icon-open-in-full" viewBox="0 0 24 24">
    <path d="M15 4h5v5"/>
    <path d="M4 15v5h5"/>
  </symbol>
  <symbol id="icon-panel-left" viewBox="0 0 24 24">
    <rect x="3" y="4" width="18" height="16" rx="3"/>
    <path d="M10 4v16"/>
  </symbol>
  <symbol id="icon-check-circle" viewBox="0 0 24 24">
    <path d="M20 6 9 17l-5-5"/>
    <path d="M12 22a10 10 0 1 0 0-20 10 10 0 0 0 0 20Z"/>
  </symbol>
  <symbol id="icon-more-vert" viewBox="0 0 24 24">
    <circle cx="12" cy="7" r="1.6" fill="currentColor" stroke="none"/>
    <circle cx="12" cy="12" r="1.6" fill="currentColor" stroke="none"/>
    <circle cx="12" cy="17" r="1.6" fill="currentColor" stroke="none"/>
  </symbol>
  <symbol id="icon-add" viewBox="0 0 24 24">
    <path d="M12 5v14"/>
    <path d="M5 12h14"/>
  </symbol>
  <symbol id="icon-delete" viewBox="0 0 24 24">
    <path d="M3 6h18"/>
    <path d="M8 6V4h8v2"/>
    <path d="M6 6l1 15h10l1-15"/>
    <path d="M10 11v6"/>
    <path d="M14 11v6"/>
  </symbol>
  <symbol id="icon-bookmark" viewBox="0 0 24 24">
    <path d="M6 4h12v17l-6-4-6 4V4Z"/>
  </symbol>
  <symbol id="icon-bookmark-add" viewBox="0 0 24 24">
    <path d="M6 4h12v17l-6-4-6 4V4Z"/>
    <path d="M12 8v6"/>
    <path d="M9 11h6"/>
  </symbol>
  <symbol id="icon-bookmark-remove" viewBox="0 0 24 24">
    <path d="M6 4h12v17l-6-4-6 4V4Z"/>
    <path d="M9 11h6"/>
  </symbol>
</svg>
